<?xml version="1.0" standalone="no"?>
<!DOCTYPE svg PUBLIC "-//W3C//DTD SVG 20010904//EN"
 "http://www.w3.org/TR/2001/REC-SVG-20010904/DTD/svg10.dtd">
<svg version="1.0" xmlns="http://www.w3.org/2000/svg"
 width="589.000000pt" height="395.000000pt" viewBox="0 0 589.000000 395.000000"
 preserveAspectRatio="xMidYMid meet">

<g transform="translate(0.000000,395.000000) scale(0.100000,-0.100000)"
fill="#000000" stroke="none">
<path d="M2758 3541 c-84 -81 -170 -163 -191 -181 -70 -61 -69 -53 -75 -465
-4 -290 -2 -374 8 -380 6 -4 249 -8 539 -9 429 -1 531 -4 544 -15 15 -12 16
-53 13 -430 -2 -229 -1 -431 2 -449 9 -60 30 -46 267 178 44 41 116 108 160
148 44 41 85 83 92 95 9 17 12 164 13 592 0 530 -1 572 -18 597 -21 31 -42 51
-172 157 -52 43 -140 117 -194 165 -55 48 -106 86 -115 84 -14 -3 -17 -38 -21
-304 -4 -235 -8 -305 -19 -317 -12 -15 -47 -17 -317 -17 -268 0 -304 2 -319
17 -15 14 -16 50 -15 327 2 380 3 356 -15 356 -8 0 -83 -67 -167 -149z"/>
<path d="M2189 3047 c-36 -34 -121 -111 -189 -172 -68 -60 -145 -132 -171
-160 -43 -45 -49 -56 -54 -110 -4 -33 -5 -302 -3 -597 l3 -536 25 -28 c14 -14
90 -83 170 -151 80 -69 172 -149 204 -179 55 -50 99 -74 112 -61 3 2 5 139 4
302 0 265 1 300 16 316 16 18 38 19 310 19 280 0 294 -1 304 -19 6 -13 10
-138 10 -340 0 -175 3 -326 6 -335 3 -9 12 -16 20 -16 24 0 402 373 417 413 5
12 11 187 14 389 5 289 3 371 -7 383 -11 13 -78 15 -534 15 -410 0 -526 3
-540 13 -16 12 -17 28 -11 182 9 253 4 708 -7 723 -17 21 -31 14 -99 -51z"/>
<path d="M2040 791 l-35 -6 -5 -130 c-3 -71 -3 -194 -1 -272 l3 -143 74 0 73
0 5 33 c17 113 20 216 10 385 -5 99 -9 114 -27 127 -22 16 -38 17 -97 6z"/>
<path d="M2713 785 c-19 -13 -22 -28 -28 -118 -8 -145 -6 -345 6 -389 l10 -38
58 0 c70 0 71 1 71 114 0 114 4 118 115 114 l90 -3 6 -110 c4 -60 7 -111 8
-112 0 -2 32 -3 70 -3 52 0 72 4 82 17 11 13 14 68 14 259 0 286 3 277 -96
275 -38 -1 -66 -6 -71 -14 -4 -6 -8 -40 -8 -74 0 -58 -2 -63 -25 -69 -44 -11
-165 0 -175 16 -6 8 -10 38 -10 65 0 28 -4 55 -8 62 -13 21 -84 26 -109 8z"/>
<path d="M4419 791 c-33 -7 -137 -78 -168 -115 -21 -25 -42 -19 -86 24 -22 22
-48 43 -57 46 -10 3 -18 9 -18 13 0 17 -54 31 -120 31 -102 0 -100 5 -100
-268 0 -280 1 -282 95 -282 76 0 71 -11 79 164 4 65 9 122 12 127 3 5 31 -13
62 -40 31 -26 67 -54 80 -60 28 -15 48 -5 116 56 26 23 52 43 56 43 15 0 22
-36 27 -145 3 -60 10 -118 15 -127 12 -23 109 -26 128 -3 9 11 12 81 11 262 0
241 -1 248 -22 266 -22 18 -49 20 -110 8z"/>
<path d="M385 781 c-10 -18 -56 -155 -64 -196 -5 -22 -14 -53 -19 -70 -28 -79
-64 -223 -60 -245 3 -23 8 -25 62 -28 48 -3 62 0 77 17 11 11 19 30 19 42 0
11 7 35 15 52 8 18 19 50 24 72 26 106 42 149 58 161 16 11 18 10 21 -13 2
-15 10 -36 17 -47 7 -12 16 -44 20 -73 7 -50 6 -52 -24 -68 -29 -14 -31 -19
-31 -68 0 -29 5 -58 12 -65 8 -8 53 -12 135 -12 l123 0 0 34 c0 19 -4 38 -10
41 -5 3 -10 23 -10 43 0 21 -6 47 -14 58 -8 11 -17 38 -21 60 -4 21 -15 64
-26 94 -10 30 -21 74 -25 97 -4 24 -13 48 -20 54 -8 6 -14 19 -14 28 0 34 -22
41 -131 41 -59 0 -110 -4 -114 -9z"/>
<path d="M840 764 c-11 -27 -14 -464 -4 -502 6 -20 12 -22 70 -22 76 0 70 -14
80 185 9 182 9 179 18 193 5 8 52 12 161 12 172 0 165 -3 165 80 0 86 17 80
-246 80 l-234 0 -10 -26z"/>
<path d="M1384 764 c-9 -34 4 -449 15 -490 7 -27 11 -29 65 -32 33 -2 64 2 71
8 19 16 25 70 28 235 l2 140 70 3 c88 4 115 -3 115 -28 0 -26 -34 -42 -83 -42
-70 1 -77 -8 -77 -97 l0 -77 54 -55 c73 -76 105 -89 208 -88 45 0 77 3 71 6
-7 2 -13 10 -13 17 0 6 -20 31 -44 55 -57 56 -62 75 -26 101 56 40 70 77 70
187 l0 99 -40 39 -41 40 -219 3 -219 3 -7 -27z"/>
<path d="M3440 777 c-104 -35 -156 -98 -171 -206 -23 -162 40 -274 178 -316
105 -32 236 -9 305 53 65 59 81 102 82 213 0 83 -3 101 -24 135 -30 51 -68 86
-116 109 -48 23 -201 30 -254 12z m192 -167 c60 -46 61 -124 2 -181 -32 -30
-41 -34 -90 -33 -46 0 -59 4 -82 27 -24 24 -27 35 -27 93 0 60 3 68 28 90 37
32 131 34 169 4z"/>
<path d="M4602 778 c-17 -17 -17 -497 1 -521 11 -16 35 -17 247 -15 l235 3 0
70 0 70 -149 3 c-90 1 -155 7 -163 14 -9 7 -13 40 -13 114 0 123 -16 113 185
117 l140 2 5 51 c3 28 3 62 0 75 l-6 24 -235 3 c-174 2 -238 -1 -247 -10z"/>
<path d="M5234 783 c-11 -2 -35 -17 -52 -33 -32 -29 -32 -30 -32 -124 0 -86 2
-97 25 -124 42 -50 108 -75 205 -76 47 0 91 -5 98 -9 30 -20 -8 -27 -138 -27
-155 0 -160 -2 -160 -72 0 -82 -8 -78 184 -78 158 0 175 2 216 22 52 27 58 41
59 148 2 160 -21 182 -197 190 -160 7 -147 24 23 30 77 3 146 9 153 13 16 11
16 119 0 135 -9 9 -63 12 -187 11 -97 -1 -185 -4 -197 -6z"/>
<path d="M1052 588 c-15 -15 -16 -102 -2 -129 10 -17 22 -19 134 -19 94 0 126
3 135 14 7 9 11 40 9 78 l-3 63 -130 3 c-93 2 -134 -1 -143 -10z"/>
<path d="M4812 578 c-5 -13 -6 -50 -3 -83 l6 -60 54 -3 c30 -2 65 -1 78 3 23
5 24 9 21 83 l-3 77 -73 3 c-67 3 -73 1 -80 -20z"/>
<path d="M2240 583 c-8 -3 -18 -11 -22 -17 -12 -18 -9 -101 4 -114 15 -15 370
-17 399 -2 15 8 19 21 19 58 0 79 4 77 -202 79 -101 1 -190 -1 -198 -4z"/>
</g>
</svg>
