<svg xmlns="http://www.w3.org/2000/svg" shape-rendering="geometricPrecision" text-rendering="geometricPrecision" image-rendering="optimizeQuality" fill-rule="evenodd" clip-rule="evenodd" viewBox="0 0 512 491.621"><path d="M168.982 240.544v-64.183c-7.011 2.694-13.566 2.755-19.014.894-4.253-1.435-7.844-4.008-10.48-7.334-2.634-3.321-4.31-7.364-4.822-11.826-.777-6.915 1.288-14.733 7.188-22.067.299-.36.63-.719 1.018-1.018L313.714 1.655c2.214-2.036 5.63-2.249 8.082-.328l171.233 133.117c.271.206.512.419.748.69 7.936 8.53 9.914 17.993 7.996 25.989a24.232 24.232 0 01-5.448 10.416 23.65 23.65 0 01-9.698 6.559c-5.993 2.153-13.117 2.096-20.334-1.32v94.933c-5.064.48-10.267 1.472-15.576 3.034-.397.108-.798.229-1.192.356V169.415c0-3.025-117.455-95.871-130.423-105.96-13.74 10.448-133.355 102.547-133.355 106.437v72.411a156.741 156.741 0 00-4.66-1.018 29.445 29.445 0 00-5.292-.582l-6.813-.159zM0 250.773h80.012L75.461 447.55H0V250.773zm97.951 180.886l3.804-163.332 73.464 1.714c31.015 6.31 61.765 23.918 92.455 44.255l57.061 1.33c25.792 2.156 38.709 28.648 13.219 45.264-20.36 14.204-46.734 12.761-73.731 9.704-18.635-1.355-20.038 23.708-.566 24.249 6.74.678 14.135-.731 20.553-.588 33.773.753 61.743-5.054 79.386-31.336l9.024-19.774 85.858-40.105c42.802-12.996 71.95 32.141 39.939 62.302-62.515 43.299-126.43 78.639-191.602 106.864-47.5 27.398-94.313 25.34-140.508-3.273l-68.356-37.274zm226.212-272.524v53.858h48.326v-.15c0-14.853-6.078-28.352-15.868-38.139-8.537-8.54-19.885-14.255-32.458-15.569zm0 65.238v46.765h48.326v-46.765h-48.326zm-11.378 46.743v-46.743h-48.32v46.765h48.32v-.022zm0-58.123v-53.858c-12.601 1.345-23.922 7.029-32.455 15.569-9.79 9.787-15.871 23.286-15.871 38.139v.15h48.326zm5.69-65.541c17.997 0 34.342 7.367 46.168 19.192 11.857 11.858 19.192 28.209 19.192 46.168v69.643H258.877a12.425 12.425 0 01-3.21-1.317c-.875-.515-1.736-1.151-2.583-1.87v-66.456c0-17.993 7.367-34.342 19.193-46.168 11.854-11.825 28.206-19.192 46.198-19.192zM466.652 15.385v66.784l-51.409-33.924v-32.86h51.409z"/></svg>